<?xml version="1.0" encoding="UTF-8"?>
<!DOCTYPE svg PUBLIC "-//W3C//DTD SVG 1.1//EN" "http://www.w3.org/Graphics/SVG/1.1/DTD/svg11.dtd">
<svg xmlns="http://www.w3.org/2000/svg" version="1.1" width="148px" height="148px" style="shape-rendering:geometricPrecision; text-rendering:geometricPrecision; image-rendering:optimizeQuality; fill-rule:evenodd; clip-rule:evenodd" xmlns:xlink="http://www.w3.org/1999/xlink">
<g><path style="opacity:1" fill="#f18e18" d="M 40.5,0.5 C 64.2108,0.0510296 87.8774,0.55103 111.5,2C 130.283,7.78402 141.783,20.284 146,39.5C 146.667,62.1667 146.667,84.8333 146,107.5C 140.808,129.022 127.308,141.855 105.5,146C 84.1667,146.667 62.8333,146.667 41.5,146C 18.8848,141.052 5.38478,127.218 1,104.5C 0.333333,83.8333 0.333333,63.1667 1,42.5C 5.45256,20.2164 18.6192,6.21641 40.5,0.5 Z M 116.5,49.5 C 99.1667,67.1667 81.8333,84.8333 64.5,102.5C 53.5869,93.0906 43.0869,83.0906 33,72.5C 33.5465,69.9067 35.0465,67.7401 37.5,66C 38.1667,65.3333 38.8333,65.3333 39.5,66C 47.3476,74.0145 55.3476,81.8479 63.5,89.5C 78.6528,74.8474 93.6528,60.0141 108.5,45C 109.5,44.3333 110.5,44.3333 111.5,45C 113.037,46.7073 114.704,48.2073 116.5,49.5 Z"/></g>
<g><path style="opacity:0.855" fill="#fbb76e" d="M 116.5,49.5 C 117.525,49.8966 117.692,50.5632 117,51.5C 99.9149,69.0874 82.4149,86.0874 64.5,102.5C 81.8333,84.8333 99.1667,67.1667 116.5,49.5 Z"/></g>
</svg>
