<svg width="99" height="206" viewBox="0 0 99 206" fill="none" xmlns="http://www.w3.org/2000/svg">
<g id="Frame" clip-path="url(#clip0_1235_1852)">
<g id="Symbols">
<g id="Scene/Plants">
<path id="Leaf-Top" opacity="0.2" fill-rule="evenodd" clip-rule="evenodd" d="M74.5927 4.05107C75.8386 3.43481 77.4996 4.14953 76.8067 5.77869C76.0645 7.52326 73.3204 7.54481 71.7707 7.51024C71.9258 7.50213 72.4253 5.90232 72.5963 5.66058C73.1006 4.94744 73.8268 4.43062 74.5927 4.05107ZM60.247 35.8385C59.8069 36.2138 60.2111 35.8737 60.247 35.8385V35.8385ZM76.0408 12.1509C76.7858 12.7133 76.8208 13.707 76.2117 14.3799C75.4863 15.181 74.1626 15.1525 73.1745 15.075C72.7276 15.0399 70.341 14.8523 70.907 14.4662C70.8634 14.4824 70.7725 14.5219 70.6752 14.5755C70.6228 14.7645 70.5677 14.9528 70.5104 15.1402C70.5244 15.1483 70.5364 15.157 70.5514 15.165C70.5351 15.158 70.5237 15.1504 70.5094 15.1433C69.9345 17.0169 69.1166 18.8009 68.046 20.4702C68.4464 20.3143 68.861 20.1962 69.2814 20.1435C70.5266 19.9874 73.1454 20.9419 71.7518 22.5803C70.4156 24.1509 68.3374 22.4676 66.822 22.2361C65.3508 24.2637 63.729 26.207 62.0295 28.0853C62.1335 28.1175 62.2248 28.1845 62.2771 28.289C62.9587 27.9471 63.6691 27.4582 64.2998 27.3256C65.21 27.1345 67.0761 27.018 67.7635 27.8224C68.609 28.8114 67.7018 29.6156 66.7022 29.8059C65.2527 30.0818 63.3559 29.3833 61.9616 28.9113C61.802 28.9393 61.6279 28.8933 61.524 28.7673C61.4931 28.7573 61.4623 28.7475 61.4324 28.738C59.7113 30.6072 57.9244 32.4148 56.1484 34.1828C56.1673 34.1818 56.1862 34.1806 56.2059 34.1796C56.6691 33.8794 57.1659 33.633 57.7043 33.5037C58.9498 33.2033 60.4151 33.201 61.4253 34.0907C62.4315 34.9766 62.7873 36.5266 61.7454 37.5224C59.6597 39.5158 56.5906 34.9747 55.5391 34.7856C53.7343 36.5635 51.8261 38.2246 49.8879 39.8523C50.1079 39.786 50.3336 39.7372 50.5668 39.7152C52.4667 39.5346 56.9247 41.8332 54.592 44.0982C52.5592 46.0719 50.2096 42.2762 48.5729 40.9491C46.7465 42.4662 44.9101 43.9729 43.1253 45.5382C44.0984 45.2825 45.0388 45.2444 46.0817 45.5553C47.1609 45.8774 48.9021 46.6816 48.2191 48.1215C47.5243 49.5859 45.4333 48.9208 44.3442 48.4565C43.7502 48.2033 42.5595 47.3483 41.5138 46.9885C38.6656 49.6451 36.1982 52.5708 34.3296 56.0168C33.163 58.1684 32.2774 60.467 31.6537 62.8293C31.2556 64.3371 30.4714 66.8695 30.6271 68.8317C29.882 64.9044 31.2353 60.1865 32.6923 56.675C34.0319 53.4461 36.0358 50.6111 38.3825 48.059C37.7949 46.3105 32.8421 43.7906 35.8045 42.1643C37.3777 41.3045 38.9877 42.7291 39.3307 44.2387C39.5663 45.276 39.2059 46.5797 38.8236 47.5868C39.5618 46.8089 40.3292 46.0559 41.1199 45.3278C42.2127 44.3216 43.3317 43.3446 44.4613 42.3798C42.6015 40.654 40.8431 35.7183 43.3383 34.9096C47.0229 33.7189 45.2456 40.4536 44.988 41.7157C44.915 41.72 44.8581 41.6983 44.8163 41.6516C44.837 41.7672 44.861 41.8908 44.89 42.0154C47.0521 40.1785 49.2462 38.3778 51.3681 36.4971C51.1771 36.3577 50.8736 35.8247 50.635 35.541C50.0965 34.9016 49.5813 34.2337 49.2049 33.4855C48.6104 32.3032 48.0374 30.4172 49.6154 29.7208C51.3315 28.9621 52.1457 31.0951 52.157 32.3678C52.1647 33.248 51.9216 34.0843 51.7948 34.9472C51.7552 35.2163 51.9067 36.4291 51.5359 35.9075C51.5533 36.0999 51.5557 36.2392 51.547 36.338C51.928 35.9987 52.306 35.6556 52.6816 35.3102C52.6642 35.2666 52.6514 35.2191 52.6485 35.1639C52.6285 34.7845 53.0151 34.6382 53.2861 34.7492C53.7817 34.2838 54.2725 33.8126 54.7546 33.3321C55.7763 32.314 56.8129 31.2669 57.8422 30.1975C57.6191 30.0082 57.708 29.7458 57.4994 29.5448C57.2911 29.3443 56.8806 29.2335 56.6357 29.0472C56.0195 28.5785 55.5087 27.8954 55.1394 27.223C54.5296 26.112 53.7421 23.7812 55.5253 23.2507C57.3633 22.703 58.2949 24.9465 58.4124 26.3494C58.4352 26.6212 58.228 29.0704 58.0698 29.9597C59.9745 27.9723 61.848 25.9104 63.5454 23.8126C63.0311 23.8082 61.5734 22.7679 61.2787 22.484C60.5598 21.7915 59.4171 20.2611 60.6786 19.4503C61.8002 18.7311 63.1818 19.7712 63.6608 20.7825C63.7395 20.949 64.0166 22.4991 64.0379 23.1947C64.7405 22.3051 65.4107 21.4103 66.0343 20.5127C66.4501 19.9159 66.8388 19.3034 67.2024 18.6778C67.115 18.6289 67.0327 18.5436 66.9551 18.4374C65.0852 18.1248 62.7024 15.2436 64.8995 14.2396C65.9456 13.7622 67.0793 14.746 67.5912 15.5516C67.696 15.7165 67.8656 16.5453 68.0036 17.1991C69.0499 15.1269 69.8499 12.9332 70.459 10.6842C70.2962 10.6443 70.1584 10.5216 70.1403 10.3103C69.2326 9.79938 68.5159 9.37396 67.8826 8.391C67.4892 7.78047 66.7808 6.38546 67.9379 6.04589C69.4437 5.60406 70.3883 7.87537 70.5109 8.99429C70.5252 9.12416 70.5245 9.50193 70.5194 9.84812C70.5716 9.84105 70.6245 9.84182 70.6763 9.85084C71.0228 8.45821 71.2995 7.04769 71.5198 5.63483C70.6981 5.37396 70.5582 1.11055 71.1057 0.503202C72.3294 -0.856721 73.1912 1.10642 73.1254 2.14424C73.0476 3.36794 72.4858 4.48134 71.8169 5.46956C71.7451 5.57421 71.7656 5.56912 71.7471 5.4234C71.7368 5.49543 71.7124 5.54861 71.6762 5.58713C71.7103 6.23123 71.7772 6.89065 71.7446 7.46064C71.6512 9.09293 71.4579 10.7348 71.1777 12.3462C71.1095 12.7381 71.0314 13.1268 70.944 13.5121C71.6048 12.9559 72.4956 12.4615 72.8441 12.3069C73.7488 11.906 75.1428 11.4729 76.0408 12.1509ZM30.4791 68.6767C30.5228 69.2012 30.6525 69.6799 30.9078 70.0721C30.7204 69.6238 30.5798 69.1569 30.4791 68.6767Z" fill="#F7F8F9"/>
<g id="Plant-Left" opacity="0.5">
<path id="Leaf" fill-rule="evenodd" clip-rule="evenodd" d="M63.2403 57.4974C64.7315 55.3766 67.4986 49.9902 69.5974 49.2324C70.9492 48.7442 70.555 53.7936 70.5717 54.7563C70.6367 58.4812 70.2732 62.1825 69.8243 65.8762C69.0154 72.5376 66.3707 78.4701 62.7432 84.1397C60.8766 87.057 58.6872 90.0097 55.6548 91.83C54.2589 92.6683 52.5794 92.8086 51.2009 93.5309C49.5955 94.3717 50.4698 93.692 49.7463 95.3607C48.7415 97.6776 48.4202 100.667 47.9553 103.139C45.8208 114.487 40.6532 174.479 41.549 186.022C41.6286 187.045 40.1983 187.29 40.1269 186.041C39.7474 179.418 43.0314 133.554 44.6881 118.555C46.3449 103.556 48.0215 90.3052 49.7026 85.1161C51.7421 78.8206 55.4254 71.2497 58.4916 65.3788C59.9158 62.6514 61.4682 60.0178 63.2403 57.4974Z" fill="#626975"/>
<path id="Leaf_2" fill-rule="evenodd" clip-rule="evenodd" d="M74.3083 131.06C78.1885 128.219 82.3885 133.581 78.8773 136.423C76.9363 137.994 74.907 137.435 73.7646 136.126C73.023 137.028 72.3289 137.971 71.6619 138.767C69.6298 141.194 67.7092 143.679 65.8737 146.221C62.0607 151.503 58.7929 157.084 55.3763 162.562C52.0045 167.969 48.6597 173.403 45.6036 178.947C43.0146 183.644 39.5639 189.17 38.6775 194.319C40.0224 183.398 45.1256 172.902 51.2026 163.274C57.2302 153.726 64.1475 143.298 73.4804 135.763C72.5306 134.369 72.5042 132.38 74.3083 131.06Z" fill="#F7F8F9"/>
<path id="Leaf_3" fill-rule="evenodd" clip-rule="evenodd" d="M0.678876 104.426C2.85022 104.85 6.39817 109.75 8.18801 111.616C10.3151 113.835 12.2449 116.199 14.064 118.677C17.9801 124.009 21.4823 129.679 24.4604 135.592C29.3155 145.23 33.2051 155.124 36.0279 165.62C37.7558 172.045 38.8746 178.704 39.5377 185.317C39.6629 186.564 40.9737 196.179 39.0849 196.438C37.3862 196.671 37.9109 189.137 37.8289 188.112C36.9025 176.55 34.1274 165.3 30.2672 154.403C29.4264 152.029 28.6453 149.121 27.3006 146.985C26.3323 145.446 27.2937 145.983 25.592 145.4C24.1308 144.9 22.466 145.022 20.9697 144.41C17.7191 143.08 15.1163 140.499 12.8348 137.902C8.40108 132.856 4.88755 127.397 3.0561 120.931C2.04013 117.346 1.10652 113.74 0.588414 110.044C0.454391 109.089 -0.719671 104.154 0.678876 104.426Z" fill="#626975"/>
<path id="Leaf_4" fill-rule="evenodd" clip-rule="evenodd" d="M9.24757 22.9061C17.4266 37.0551 24.1477 52.5974 28.4877 68.3394C31.1171 77.8773 32.956 87.6646 34.783 97.3812C37.6119 112.426 40.2877 127.47 41.0488 142.782C41.8146 158.183 43.3288 175.946 38.2732 190.78C40.7985 175.72 38.3942 159.689 37.9685 144.536C37.7651 137.302 37.1756 130.139 36.4023 122.947C35.6519 115.97 34.4259 109.027 33.2842 102.106C32.7281 98.7346 32.144 95.3688 31.5493 92.0047C31.3718 91.0011 31.2968 88.0229 30.6586 87.3372C30.0162 86.6471 26.7386 86.3657 25.7096 85.8593C23.6375 84.8394 21.6885 83.3906 19.9635 81.8598C16.6568 78.9253 13.78 75.091 11.5095 71.3113C6.25604 62.5656 4.15572 51.8926 4.26187 41.764C4.28227 39.7975 7.45281 18.6211 6.17947 18.3295C6.25614 18.2399 6.32866 18.1475 6.39704 18.0513C7.36106 19.6613 8.30705 21.2823 9.24757 22.9061Z" fill="#A1A6AE"/>
<path id="Leaf_5" fill-rule="evenodd" clip-rule="evenodd" d="M97.526 73.936C97.6522 73.7544 98.4736 72.4916 98.06 72.5723C98.9021 72.408 96.9017 73.965 99 73.0097C98.0037 73.9482 98.5787 75.1674 98.592 76.4307C98.6137 78.4816 98.2697 80.5156 97.8824 82.5225C97.2705 85.6948 96.359 88.7792 95.0359 91.7298C92.1521 98.1599 87.2553 104.35 81.442 108.37C78.5721 110.355 75.7594 111.031 72.4863 111.944C70.4189 112.522 70.2549 113.588 69.1575 115.59C66.8728 119.758 64.6288 123.911 62.6138 128.22C60.2079 133.365 57.8723 138.515 55.6692 143.751C48.2472 161.387 42.2064 179.658 39.0339 198.567C38.9563 187.424 41.5405 175.948 44.8002 165.327C47.1747 157.588 50.2658 150.129 53.5628 142.745C54.3618 140.956 55.5725 138.655 55.9118 136.68C56.1493 135.296 55.423 133.966 55.0905 132.508C53.794 126.831 53.8868 120.472 55.0253 114.765C56.2805 108.472 59.9107 105.552 66.0515 104.66C68.2973 104.334 71.1518 104.454 73.2111 103.498C75.4546 102.458 76.3802 99.0393 77.6559 96.8446C81.0826 90.9491 85.1541 85.2949 89.8292 80.3275C91.1237 78.9519 92.5158 77.6829 93.9926 76.5067C94.924 75.7645 96.8913 74.8502 97.526 73.936Z" fill="#A1A6AE"/>
<path id="Base" fill-rule="evenodd" clip-rule="evenodd" d="M28.668 186.532H50.4611C51.441 186.532 52.2353 187.325 52.2353 188.302C52.2353 188.388 52.229 188.475 52.2164 188.56L50.5319 199.953C50.0185 203.427 47.0306 206 43.5111 206H35.618C32.0985 206 29.1107 203.427 28.5972 199.953L26.9128 188.56C26.7698 187.593 27.4398 186.694 28.4091 186.551C28.4948 186.539 28.5814 186.532 28.668 186.532Z" fill="#F7F8F9"/>
</g>
</g>
</g>
</g>
<defs>
<clipPath id="clip0_1235_1852">
<rect width="99" height="206" fill="white"/>
</clipPath>
</defs>
</svg>
